/* XPM */
static char * box_xpm[] = {
"14 12 2 1",
"  c None",
". c #0000FF",
"............  ",
"............  ",
"............  ",
"............  ",
"............  ",
"............  ",
"............  ",
"............  ",
"............  ",
"............  ",
"............  ",
"............  "};
